Coordinates
version=1
nRows=12
nColumns=46
inDegrees=yes

Units are S.I. units (second, meters, Newtons, ...)
Angles are in degrees.

endheader
time	pelvis_tilt	pelvis_list	pelvis_rotation	pelvis_tx	pelvis_ty	pelvis_tz	bb_angle	bb_tx	bb_ty	bb_tz	hip_flexion_r	hip_adduction_r	hip_rotation_r	knee_angle_r	knee_angle_r_beta	ankle_angle_r	subtalar_angle_r	mtp_angle_r	crank_angle_r	hip_flexion_l	hip_adduction_l	hip_rotation_l	knee_angle_l	knee_angle_l_beta	ankle_angle_l	subtalar_angle_l	mtp_angle_l	crank_angle_l	lumbar_extension	lumbar_bending	lumbar_rotation	arm_flex_r	arm_add_r	arm_rot_r	elbow_flex_r	pro_sup_r	wrist_flex_r	wrist_dev_r	arm_flex_l	arm_add_l	arm_rot_l	elbow_flex_l	pro_sup_l	wrist_flex_l	wrist_dev_l
      5.00000000	    -30.47380426	      5.03303234	      8.14765862	      0.40549879	      1.09503798	     -0.32987755	      0.00000000	      0.50000000	      0.00000000	      0.25000000	     38.15848552	    -13.96327922	     -1.55919766	     36.03228079	      0.62888194	    -30.36945825	     -9.26399178	      0.00000000	      0.00000000	     84.49039254	      2.05338739	     -0.82604220	    100.62490063	      1.75623583	     14.18099967	     -1.45259327	      0.00000000	      0.00000000	    -63.00522451	     -1.21286479	     -7.10424487	     45.41745061	    -19.85009725	     11.87776814	     95.11862463	     48.08711113	      0.00000000	      0.00000000	     54.69191564	    -22.73242315	     27.67205391	    101.32229192	     49.03335617	      0.00000000	      0.00000000
      5.00500000	    -30.72774097	      5.02826380	      7.92355347	      0.40581668	      1.09667289	     -0.32980722	      0.00000000	      0.50000000	      0.00000000	      0.25000000	     38.74485730	    -13.75297577	     -1.17008048	     37.51066262	      0.65468457	    -29.86049489	    -10.04706539	      0.00000000	      0.00000000	     83.68870203	      1.79494959	     -1.14907123	     98.59775246	      1.72085542	     15.55249266	     -1.45242327	      0.00000000	      0.00000000	    -63.21590124	     -1.62932598	     -7.13344109	     45.55575559	    -19.96739216	     11.72162284	     95.07031904	     48.06173075	      0.00000000	      0.00000000	     54.85893712	    -22.69551253	     27.68581721	    101.75767027	     49.09009060	      0.00000000	      0.00000000
      5.01000000	    -30.92940046	      5.12783580	      7.59269168	      0.40627085	      1.09834696	     -0.32955437	      0.00000000	      0.50000000	      0.00000000	      0.25000000	     39.37049917	    -13.54506661	     -0.51200639	     39.06176260	      0.68175637	    -29.44525343	    -10.75800808	      0.00000000	      0.00000000	     82.68091817	      1.51167866	     -1.50851212	     96.40899933	      1.68265447	     16.83217745	     -1.18546225	      0.00000000	      0.00000000	    -63.49302594	     -2.22974162	     -7.19277804	     45.56020486	    -20.09762566	     11.52614365	     95.04706481	     48.04012691	      0.00000000	      0.00000000	     55.10937567	    -22.67979269	     27.70878316	    102.38649983	     49.16963395	      0.00000000	      0.00000000
      5.01500000	    -31.01580617	      5.05781207	      7.27533592	      0.40683004	      1.09985008	     -0.32944432	      0.00000000	      0.50000000	      0.00000000	      0.25000000	     39.91520799	    -13.20603906	      0.04236052	     40.68869340	      0.71015167	    -29.04585441	    -11.43184359	      0.00000000	      0.00000000	     81.55730288	      1.18896078	     -1.79089912	     94.17516024	      1.64366662	     17.94322961	     -1.27610812	      0.00000000	      0.00000000	    -63.80499231	     -2.61916784	     -7.05949400	     45.70197356	    -20.25775890	     11.39684771	     95.02843082	     48.02349581	      0.00000000	      0.00000000	     55.23880050	    -22.62149938	     27.67311497	    102.79431131	     49.21519414	      0.00000000	      0.00000000
      5.02000000	    -31.09630142	      5.09014389	      6.88905808	      0.40744094	      1.10124283	     -0.32934693	      0.00000000	      0.50000000	      0.00000000	      0.25000000	     40.58570533	    -12.92514505	      0.78413798	     42.43992548	      0.74071643	    -28.65976920	    -11.86121451	      0.00000000	      0.00000000	     80.33937651	      0.76864791	     -2.32617720	     91.79572337	      1.60213761	     18.80067824	     -1.46623907	      0.00000000	      0.00000000	    -64.18190035	     -3.16293814	     -7.05496870	     45.70493369	    -20.47879727	     11.24860213	     95.08020427	     48.02073015	      0.00000000	      0.00000000	     55.39216680	    -22.54262636	     27.58842434	    103.33580566	     49.26965141	      0.00000000	      0.00000000
      5.02500000	    -31.12805407	      5.01997365	      6.48482511	      0.40806150	      1.10239899	     -0.32923042	      0.00000000	      0.50000000	      0.00000000	      0.25000000	     41.24129163	    -12.51760927	      1.54005827	     44.23866778	      0.77211041	    -28.20878596	    -12.18586524	      0.00000000	      0.00000000	     79.14831915	      0.42862258	     -2.72122165	     89.41655498	      1.56061329	     19.14627453	     -2.27137163	      0.00000000	      0.00000000	    -64.48683489	     -3.60456369	     -6.93264829	     45.78253388	    -20.68163047	     11.11460239	     95.15707619	     48.02258035	      0.00000000	      0.00000000	     55.46796314	    -22.42252026	     27.49950248	    103.76516186	     49.30856116	      0.00000000	      0.00000000
      5.03000000	    -31.16708115	      4.86618240	      6.08092437	      0.40876092	      1.10330551	     -0.32921985	      0.00000000	      0.50000000	      0.00000000	      0.25000000	     41.95999125	    -12.04476735	      2.25953192	     46.12926436	      0.80510754	    -27.75934610	    -12.43267934	      0.00000000	      0.00000000	     78.05062897	      0.09478996	     -3.05820924	     87.15477718	      1.52113782	     19.16908145	     -3.20108236	      0.00000000	      0.00000000	    -64.76953465	     -3.96586064	     -6.70821522	     45.77960384	    -20.89928337	     10.99036601	     95.23425906	     48.02658378	      0.00000000	      0.00000000	     55.38832524	    -22.30980752	     27.40633238	    104.19216013	     49.34832761	      0.00000000	      0.00000000
      5.03500000	    -31.24012708	      4.81489238	      5.72210646	      0.40925569	      1.10393409	     -0.32937012	      0.00000000	      0.50000000	      0.00000000	      0.25000000	     42.81715407	    -11.70296793	      3.08288288	     48.15181049	      0.84040763	    -27.20698841	    -12.35726300	      0.00000000	      0.00000000	     77.03165441	     -0.11150061	     -3.45056120	     84.89539383	      1.48170414	     18.83256825	     -4.01272275	      0.00000000	      0.00000000	    -64.98104304	     -4.34892145	     -6.63230017	     45.69064809	    -21.11903162	     10.88064814	     95.40958098	     48.05250922	      0.00000000	      0.00000000	     55.27835877	    -22.17117629	     27.26320619	    104.72164963	     49.39092941	      0.00000000	      0.00000000
      5.04000000	    -31.21426399	      4.66478487	      5.39111137	      0.40982834	      1.10432241	     -0.32933067	      0.00000000	      0.50000000	      0.00000000	      0.25000000	     43.59559424	    -11.22555510	      3.84180052	     50.27766422	      0.87751078	    -26.54338957	    -12.38717459	      0.00000000	      0.00000000	     76.03362661	     -0.39246102	     -3.75404008	     82.76378356	      1.44450052	     18.38488818	     -4.58522195	      0.00000000	      0.00000000	    -65.20518996	     -4.61828923	     -6.46123490	     45.64107013	    -21.29021945	     10.77822493	     95.59396603	     48.08070067	      0.00000000	      0.00000000	     55.11360047	    -22.02642670	     27.11153741	    105.19664411	     49.42056212	      0.00000000	      0.00000000
      5.04500000	    -31.14196758	      4.51113244	      5.10664115	      0.41032312	      1.10452784	     -0.32951275	      0.00000000	      0.50000000	      0.00000000	      0.25000000	     44.38746641	    -10.79452147	      4.54135702	     52.50487446	      0.91638293	    -25.82716403	    -12.36018350	      0.00000000	      0.00000000	     75.06937852	     -0.54690078	     -3.90175132	     80.71201606	      1.40869043	     17.67952803	     -5.28446583	      0.00000000	      0.00000000	    -65.42745538	     -4.82598213	     -6.31682556	     45.63853357	    -21.46308227	     10.71671229	     95.71364495	     48.10046376	      0.00000000	      0.00000000	     54.95702221	    -21.86188147	     26.92157202	    105.59944059	     49.43610346	      0.00000000	      0.00000000
      5.05000000	    -31.10505962	      4.28637206	      4.79045891	      0.41070422	      1.10432977	     -0.32958327	      0.00000000	      0.50000000	      0.00000000	      0.25000000	     45.26248096	    -10.20825147	      5.29165025	     54.79189291	      0.95629893	    -25.18565617	    -12.20942073	      0.00000000	      0.00000000	     74.25117076	     -0.82519092	     -3.97563040	     78.77465610	      1.37487712	     16.67089169	     -5.45133664	      0.00000000	      0.00000000	    -65.53598703	     -5.02023961	     -6.10858787	     45.63456826	    -21.62524418	     10.70152178	     95.78059063	     48.11491193	      0.00000000	      0.00000000	     54.74866489	    -21.70819957	     26.68053967	    105.99514647	     49.45048891	      0.00000000	      0.00000000
      5.05500000	    -30.86255498	      3.88044845	      4.58242495	      0.41109210	      1.10414825	     -0.32976898	      0.00000000	      0.50000000	      0.00000000	      0.25000000	     45.92793262	     -9.57478222	      5.69347803	     57.12030695	      0.99693743	    -24.49278894	    -12.59630366	      0.00000000	      0.00000000	     73.34960038	     -1.06678474	     -3.71849861	     76.99654633	      1.34384325	     15.54415176	     -5.19329288	      0.00000000	      0.00000000	    -65.75760556	     -4.94351159	     -5.72175791	     45.76150195	    -21.65730298	     10.73000528	     95.75262722	     48.11247289	      0.00000000	      0.00000000	     54.57625703	    -21.59709362	     26.59910045	    106.15608069	     49.46105714	      0.00000000	      0.00000000
